<svg width="76" height="76" viewBox="0 0 76 76" fill="none" xmlns="http://www.w3.org/2000/svg">
<circle cx="38" cy="38" r="38" fill="#E4E4E4"/>
<path d="M48.8334 24.3333C45.6172 24.3333 43 26.9504 43 30.1666C43 30.6272 43.3727 31 43.8334 31C44.294 31 44.6667 30.6272 44.6667 30.1666C44.6666 27.8692 46.5359 25.9999 48.8334 25.9999C49.294 25.9999 49.6667 25.6272 49.6667 25.1665C49.6666 24.706 49.294 24.3333 48.8334 24.3333Z" fill="black"/>
<path d="M28.4882 31.4883C27.838 32.1377 27.838 33.1956 28.4882 33.8451C28.8129 34.1697 29.2402 34.3326 29.6666 34.3326C30.093 34.3326 30.5203 34.1698 30.8449 33.8451C31.4952 33.1956 31.4952 32.1377 30.8449 31.4883C30.1956 30.8389 29.1377 30.8389 28.4882 31.4883Z" fill="black"/>
<path d="M45.155 50.5116C45.4797 50.8363 45.907 50.9991 46.3334 50.9991C46.7598 50.9991 47.1871 50.8364 47.5118 50.5116C48.162 49.8622 48.162 48.8043 47.5118 48.1548C46.8623 47.5054 45.8044 47.5054 45.155 48.1548C44.5048 48.8043 44.5048 49.8622 45.155 50.5116Z" fill="black"/>
<path d="M55.3167 23.6837C53.0075 21.3745 49.6971 20.4792 46.4648 21.2964C42.5504 22.2821 39.8171 25.8805 39.6633 30.2513C39.6474 30.7056 39.5031 31.1842 39.2743 31.6679C34.6767 28.0446 30.1766 25.9762 27.1405 26.0009C25.8805 26.0359 24.8728 26.4217 24.1451 27.1494C23.4175 27.877 23.0316 28.8847 22.9966 30.1455C22.9296 32.6628 24.2935 36.0423 26.6796 39.618C24.5932 40.0298 22.6675 41.0077 21.1676 42.5082C16.9432 46.7325 16.9432 53.6069 21.1676 57.8312C23.2799 59.9433 26.0547 60.9998 28.8295 60.9998C31.6042 60.9998 34.3791 59.9433 36.4913 57.8312C37.9925 56.3293 38.9708 54.4029 39.3821 52.316C42.8724 54.6448 46.1762 56.0039 48.6722 56.0039C48.7341 56.0039 48.7951 56.0031 48.8562 56.0015C50.1162 55.9681 51.1239 55.5815 51.8507 54.8547C52.5784 54.127 52.965 53.1194 52.9984 51.8602C53.0802 48.8141 50.9632 44.3236 47.3327 39.7249C47.816 39.4964 48.2945 39.3523 48.7487 39.3364C53.1189 39.1826 56.7182 36.4494 57.7039 32.5345C58.518 29.3014 57.6259 25.9928 55.3167 23.6837ZM35.3146 56.6484C31.7403 60.2226 25.9249 60.2226 22.3507 56.6484C18.7764 53.0741 18.7764 47.2587 22.3507 43.6845C23.7917 42.2434 25.6928 41.3367 27.7426 41.1023C28.1292 41.6273 28.5276 42.1509 28.9546 42.6784C24.7978 42.56 21.3319 45.9933 21.3326 50.1663C21.3326 54.3021 24.6969 57.6663 28.8326 57.6663C32.9683 57.6663 36.3326 54.302 36.3326 50.1663C36.3326 50.127 36.3221 50.0862 36.3214 50.0468C36.8487 50.4735 37.372 50.8701 37.8967 51.2564C37.6623 53.3064 36.7555 55.2066 35.3146 56.6484ZM34.3632 48.3842C34.5667 48.9987 34.666 49.5838 34.666 50.1665C34.666 53.3827 32.0488 55.9998 28.8326 55.9998C25.6165 55.9998 22.9993 53.3826 22.9993 50.1664C22.9993 46.9502 25.6165 44.3331 28.8327 44.3331C29.4153 44.3331 30.0005 44.4323 30.615 44.6358C31.1952 45.2811 31.7999 45.9248 32.4371 46.562C32.4371 46.562 32.4371 46.562 32.4371 46.5628C33.0742 47.1985 33.7179 47.804 34.3632 48.3842ZM51.3302 51.812C51.309 52.6306 51.0868 53.2556 50.6702 53.6715C50.2551 54.0873 49.6301 54.3095 48.8107 54.3307C46.4263 54.4113 42.94 52.8383 39.2798 50.2076C39.2694 50.1994 39.2657 50.1856 39.255 50.1779C38.3244 49.511 37.4162 48.7934 36.5273 48.0452C36.4291 47.9618 36.331 47.8828 36.2331 47.7981C35.335 47.0291 34.458 46.2262 33.6153 45.3838C32.7714 44.5395 31.9661 43.6601 31.1948 42.7589C31.1162 42.6677 31.0426 42.5767 30.9651 42.4855C30.2131 41.5927 29.4922 40.6795 28.8211 39.7441C28.8138 39.7338 28.8006 39.7306 28.7928 39.7207C26.1698 36.069 24.6031 32.5908 24.6675 30.1901C24.6895 29.3706 24.9117 28.744 25.3275 28.3281C25.7434 27.9123 26.37 27.6901 27.1887 27.6681C29.8607 27.5685 34.0934 29.6656 38.3828 33.0816C37.6971 33.964 36.8262 34.8011 35.9842 35.4692C35.0825 36.1862 34.7961 37.4647 35.3031 38.5096C35.7222 39.3723 36.4278 40.6068 37.41 41.5891C38.3923 42.5713 39.6268 43.2769 40.4895 43.696C40.8362 43.8645 41.2089 43.9451 41.5775 43.9451C42.3214 43.9451 43.0505 43.6179 43.5299 43.0149C44.1979 42.1731 45.035 41.3023 45.9171 40.6167C49.3317 44.9077 51.4025 49.1533 51.3302 51.812ZM56.0853 32.1269C55.2828 35.3145 52.31 37.542 48.6894 37.6697C45.7841 37.7714 43.0066 40.9933 42.2246 41.978C41.9902 42.2742 41.5662 42.367 41.2171 42.1969C40.47 41.8339 39.4071 41.2293 38.5885 40.4105C37.7698 39.5919 37.1651 38.5291 36.8021 37.782C36.6328 37.4328 36.7248 37.0097 37.021 36.7745C38.0057 35.9924 41.2276 33.2148 41.3293 30.3096C41.4571 26.6882 43.6845 23.7162 46.8714 22.9138C47.5216 22.7502 48.1751 22.6696 48.8188 22.6696C50.8085 22.6696 52.7079 23.4354 54.1362 24.8628C56.0259 26.7534 56.755 29.469 56.0853 32.1269Z" fill="black"/>
</svg>
